<svg xmlns="http://www.w3.org/2000/svg" xmlns:xlink="http://www.w3.org/1999/xlink" width="532" height="198" viewBox="0 0 532 198">
  <defs>
    <clipPath id="clip-StellCap_Original_Logo">
      <rect width="532" height="198"/>
    </clipPath>
  </defs>
  <g id="StellCap_Original_Logo" data-name="StellCap Original Logo" clip-path="url(#clip-StellCap_Original_Logo)">
    <g id="Group_7937" data-name="Group 7937" transform="translate(-772.002 -410)">
      <g id="Group_7626" data-name="Group 7626" transform="translate(453.093 122.379)">
        <g id="Group_7624" data-name="Group 7624">
          <path id="Path_3403" data-name="Path 3403" d="M390.1,342.149v140.38a70.19,70.19,0,0,0,0-140.38Z" fill="#fff"/>
          <path id="Path_3404" data-name="Path 3404" d="M390.1,288.621a70.19,70.19,0,0,0,0,140.38Z" fill="#af9800"/>
        </g>
        <g id="Group_7625" data-name="Group 7625">
          <path id="Path_3405" data-name="Path 3405" d="M708.6,361.325a24.49,24.49,0,0,1,13.685,4.145,41.688,41.688,0,0,1,5.074,4.259l.324.3c.42.393.843.786,1.274,1.176l.645.583,5.99-5.013-1.706-1.882a38.689,38.689,0,0,0-3.706-3.761,32.709,32.709,0,0,0-24.529-7.63A31.148,31.148,0,0,0,683.3,364.974c-5.535,6.7-7.931,14.8-7.123,24.086a30.062,30.062,0,0,0,11.5,21.819,33.3,33.3,0,0,0,20.645,6.922h.014a33.877,33.877,0,0,0,21.3-7.287A30.547,30.547,0,0,0,735,405.125l.569-.756-5.762-4.861-.65.63q-.5.48-.981.959a48.073,48.073,0,0,1-3.642,3.336,25.872,25.872,0,0,1-16.072,5.471,24.582,24.582,0,0,1-13.508-3.885c-8.97-5.861-12.649-17.165-9.155-28.127A23.508,23.508,0,0,1,708.6,361.325Z" fill="#fff"/>
          <path id="Path_3406" data-name="Path 3406" d="M531.58,385.275c-2.322-1.254-4.664-2.4-6.928-3.511-1.773-.871-3.784-1.855-5.73-2.875a21.474,21.474,0,0,1-4.655-3.116,8.2,8.2,0,0,1-2.666-7.557,8.467,8.467,0,0,1,5.276-6.223,13.332,13.332,0,0,1,10.083.146,16.6,16.6,0,0,1,6.656,4.81l.75.86,5.088-5.787-.534-.656a22.987,22.987,0,0,0-17.5-8.078,21.634,21.634,0,0,0-8.512,1.7c-7.6,3.226-11.493,10.462-9.912,18.436a15.545,15.545,0,0,0,7.448,10.389c2.414,1.505,5.077,2.823,7.423,3.984l.216.107c1.271.633,2.541,1.265,3.8,1.929l1.231.645a44.758,44.758,0,0,1,5.165,2.987,8.531,8.531,0,0,1,3.83,8.144,9.167,9.167,0,0,1-5.926,7.345,15.038,15.038,0,0,1-16.075-2.772,27.636,27.636,0,0,1-3.5-3.928l-1.5-1.881-5.8,4.777.38.721c.211.4.417.785.645,1.159a23.386,23.386,0,0,0,20.263,10.894,24.069,24.069,0,0,0,11.839-3.008,16.686,16.686,0,0,0,8.075-19.57C539.242,391.132,536.323,387.838,531.58,385.275Z" fill="#fff"/>
          <path id="Path_3407" data-name="Path 3407" d="M617.723,374.224c-4.4-2.987-9.478-4.135-15.585-3.485-6.779.723-12.042,3.723-15.646,8.917-4.642,6.691-5.691,14.363-3.123,22.807A20.281,20.281,0,0,0,596.6,416.336a28.013,28.013,0,0,0,9.374,1.589,34.54,34.54,0,0,0,7.655-.9,30.939,30.939,0,0,0,11.281-4.881l.735-.52-3.344-5.943-1.115.691a28.431,28.431,0,0,1-14.576,4.271,26.713,26.713,0,0,1-4.221-.345,14.068,14.068,0,0,1-11.895-12.682l-.013-.138h36.187l.016-.983c.008-.476.021-.942.036-1.491a39.125,39.125,0,0,0-.084-5.029C625.921,383.055,622.922,377.757,617.723,374.224ZM590.51,390.586l0-.129c.228-6.991,7.061-12.9,14.922-12.9l.353,0a13.02,13.02,0,0,1,12.81,12.9v.123Z" fill="#fff"/>
          <path id="Path_3408" data-name="Path 3408" d="M780.47,377.659c-.076-.088-.145-.167-.207-.234l-.084-.093c-2.272-2.523-7.391-6.76-16.148-6.8h-.085A22.649,22.649,0,0,0,752.5,373.7c-6.755,4.028-10.41,10.339-10.864,18.757-.422,7.906,2.08,14.509,7.435,19.626a22.006,22.006,0,0,0,15.116,5.9h0a22.062,22.062,0,0,0,16.011-6.608l.13-.133c.042-.042.084-.084.125-.127V416.8h7.4V371.731H780.47Zm-.035,12.462a18.984,18.984,0,0,1,.4,2.815l.078.849c-.183,7.9-3.922,13.742-10.265,16.024a16.5,16.5,0,0,1-5.6.995,15.419,15.419,0,0,1-15.232-13.474c-.869-6.026.549-11.043,4.214-14.909A14.267,14.267,0,0,1,764.7,377.73a18.863,18.863,0,0,1,5.047.732C775.266,380,778.961,384.027,780.435,390.121Z" fill="#fff"/>
          <path id="Path_3409" data-name="Path 3409" d="M847.316,392.461c-.454-8.419-4.109-14.73-10.863-18.757a22.652,22.652,0,0,0-11.446-3.167h-.085c-8.762.035-13.879,4.273-16.15,6.8l-.082.091c-.062.067-.132.146-.207.233v-5.927h-7.39v63.613h7.4V411.116c.041.043.083.085.125.127l.132.135a22.521,22.521,0,0,0,31.127.71C845.236,406.971,847.738,400.368,847.316,392.461Zm-8.183,4.869A15.419,15.419,0,0,1,823.9,410.8a16.488,16.488,0,0,1-5.6-.995c-6.343-2.282-10.082-8.121-10.265-16.024l.077-.854a19.109,19.109,0,0,1,.4-2.811c1.475-6.093,5.17-10.124,10.686-11.658h0c6.211-1.73,11.6-.366,15.714,3.959C838.585,386.287,840,391.3,839.133,397.33Z" fill="#fff"/>
          <path id="Path_3410" data-name="Path 3410" d="M576.4,409.588l-.5-1.021-.814.25c-.408.125-.813.256-1.212.387l-.276.089a34.609,34.609,0,0,1-5.055,1.371c-4.339.707-7.346-1.55-8.144-5.952a12,12,0,0,1-.224-2.044q-.042-11.139-.038-22.278v-.926a4.15,4.15,0,0,1,.076-.669l.064-.46h15.942v-6.687H560.108V355.611H552.3l-.025,11.663c-.026,12.076-.06,28.616-.016,33.238a34.112,34.112,0,0,0,.543,6.072c.972,5.156,3.308,8.43,7.138,10.006a18.63,18.63,0,0,0,7.115,1.459,20.36,20.36,0,0,0,10.831-3.34l.746-.466-.366-.8C577.636,412.076,576.977,410.752,576.4,409.588Z" fill="#fff"/>
          <rect id="Rectangle_3078" data-name="Rectangle 3078" width="7.752" height="63.783" transform="translate(636.892 353.056)" fill="#fff"/>
          <rect id="Rectangle_3079" data-name="Rectangle 3079" width="7.766" height="63.788" transform="translate(657.686 353.009)" fill="#fff"/>
        </g>
      </g>
      <g id="Group_7787" data-name="Group 7787" transform="translate(771.52 410.617)">
        <path id="Path_3457" data-name="Path 3457" d="M87.713,97.714A18.582,18.582,0,0,1,68.749,78.7,18.573,18.573,0,0,1,87.713,59.729c10.577,0,18.966,7.856,18.966,18.966A18.521,18.521,0,0,1,87.713,97.714m0-5.289c7.372,0,12.716-5.341,12.716-13.73S95.085,65.073,87.713,65.073,75,70.309,75,78.7s5.341,13.73,12.713,13.73" transform="translate(110.978 96.417)" fill="#fff"/>
        <path id="Path_3458" data-name="Path 3458" d="M106.434,76.134c0-5.393-2.938-8.175-7.372-8.175-4.489,0-7.427,2.782-7.427,8.175V92.588H85.546V63.151h6.089v3.365a11.324,11.324,0,0,1,8.763-3.843c6.891,0,12.075,4.324,12.075,12.551V92.588h-6.039Z" transform="translate(138.092 101.169)" fill="#fff"/>
        <rect id="Rectangle_3148" data-name="Rectangle 3148" width="6.091" height="39.533" transform="translate(257.239 154.223)" fill="#fff"/>
        <path id="Path_3459" data-name="Path 3459" d="M103.487,62.28a3.873,3.873,0,1,1,3.9,3.9,3.855,3.855,0,0,1-3.9-3.9m.8,7.8h6.091V99.515h-6.091Z" transform="translate(167.053 94.239)" fill="#fff"/>
        <path id="Path_3460" data-name="Path 3460" d="M129.669,76.134c0-5.393-2.938-8.175-7.372-8.175-4.489,0-7.427,2.782-7.427,8.175V92.588h-6.091V63.151h6.091v3.365a11.318,11.318,0,0,1,8.76-3.843c6.894,0,12.075,4.324,12.075,12.551V92.588h-6.036Z" transform="translate(175.596 101.169)" fill="#fff"/>
        <path id="Path_3461" data-name="Path 3461" d="M144.282,65.066a14.321,14.321,0,0,0-9.979-2.23,13.317,13.317,0,0,0-10.015,5.707c-2.972,4.282-3.644,9.194-2,14.6a12.98,12.98,0,0,0,8.47,8.881,17.946,17.946,0,0,0,6,1.017,22.105,22.105,0,0,0,4.9-.578,19.79,19.79,0,0,0,7.221-3.127l.473-.332L147.212,85.2l-.714.444a18.206,18.206,0,0,1-9.333,2.735,16.721,16.721,0,0,1-2.7-.222,9,9,0,0,1-7.615-8.117l-.008-.089h23.165l.01-.63c.005-.3.013-.6.024-.954a25.213,25.213,0,0,0-.055-3.218,13.2,13.2,0,0,0-5.7-10.081M126.86,75.539v-.081c.149-4.476,4.523-8.256,9.555-8.258l.225,0a8.336,8.336,0,0,1,8.2,8.261v.076Z" transform="translate(195.988 101.249)" fill="#fff"/>
      </g>
    </g>
  </g>
</svg>
