<?xml version="1.0" encoding="UTF-8" standalone="no"?><!-- Generator: Gravit.io -->
<svg xmlns="http://www.w3.org/2000/svg" style="isolation:isolate"
     viewBox="0 0 200 26.5" width="200pt" height="26.5pt">
    <defs>
        <clipPath id="_clipPath_LRv1cYMvau0jU1d5OeCOdaCPVY0EiwqL">
            <rect width="200" height="26.5"/>
        </clipPath>
    </defs>
    <g clip-path="url(#_clipPath_LRv1cYMvau0jU1d5OeCOdaCPVY0EiwqL)">
        <g>
            <path d=" M 131.399 19.671 C 129.666 17.955 128.719 15.599 128.784 13.161 C 128.707 10.749 129.666 8.419 131.418 6.76 C 133.168 5.091 135.51 4.19 137.927 4.255 C 139.235 4.226 140.535 4.462 141.749 4.949 C 143.038 5.555 144.208 6.384 145.206 7.4 L 147.95 4.4 C 145.449 1.544 141.815 -0.062 138.019 0.011 C 134.361 -0.106 130.812 1.267 128.184 3.815 C 123.02 9.063 122.987 17.474 128.112 22.761 C 130.68 25.257 134.151 26.603 137.73 26.491 C 141.52 26.526 145.13 24.878 147.587 21.993 L 144.807 19.141 C 143.817 20.11 142.682 20.918 141.442 21.536 C 140.232 22.063 138.921 22.319 137.601 22.286 C 135.262 22.307 133.019 21.361 131.402 19.67"
                  fill="rgb(255,255,255)"/>
            <path d=" M 118.541 26.199 L 118.541 22.101 L 106.874 22.101 L 106.874 0.63 L 102.559 0.63 L 102.559 26.195 L 118.541 26.199 Z  M 95.426 26.199 L 95.426 22.101 L 83.76 22.101 L 83.76 0.63 L 79.444 0.63 L 79.444 26.195 L 95.426 26.199 Z  M 52.451 0.63 L 52.451 26.195 L 70.852 26.195 L 70.852 22.144 L 56.767 22.144 L 56.767 15.301 L 69.019 15.301 L 69.019 11.46 L 56.767 11.46 L 56.767 4.698 L 70.409 4.698 L 70.409 0.63 L 52.451 0.63 Z  M 44.404 4.579 L 44.404 0.63 L 24.582 0.63 L 24.582 4.579 L 32.331 4.579 L 32.331 26.196 L 36.647 26.196 L 36.647 4.579 L 44.404 4.579 Z  M 9.696 3.994 C 12.231 3.978 14.7 4.801 16.719 6.335 L 19.132 2.897 C 16.389 0.982 13.115 -0.028 9.77 0.008 C 7.492 -0.087 5.256 0.647 3.478 2.075 C 1.859 3.419 0.954 5.439 1.028 7.542 C 0.894 9.519 1.742 11.434 3.295 12.665 C 4.078 13.29 4.954 13.79 5.892 14.146 C 7.291 14.65 8.72 15.065 10.171 15.389 C 11.572 15.652 12.915 16.16 14.14 16.889 C 14.893 17.409 15.328 18.278 15.292 19.193 C 15.311 20.142 14.848 21.037 14.062 21.57 C 13.083 22.214 11.923 22.528 10.752 22.466 C 7.747 22.376 4.881 21.177 2.706 19.101 L 0 22.356 C 2.895 25.034 6.7 26.511 10.643 26.489 C 13.028 26.602 15.374 25.863 17.264 24.404 C 18.91 23.091 19.845 21.08 19.787 18.975 C 19.92 17.072 19.188 15.21 17.793 13.908 C 16.053 12.571 14.024 11.656 11.869 11.239 C 10.077 10.907 8.345 10.31 6.73 9.465 C 5.958 8.979 5.5 8.123 5.523 7.211 C 5.504 6.299 5.926 5.434 6.657 4.889 C 7.537 4.253 8.608 3.937 9.693 3.993"
                  fill="rgb(255,255,255)"/>
            <path d=" M 195.568 17.235 C 198.329 15.548 200.01 12.542 200 9.306 C 199.972 6.809 198.952 4.426 197.165 2.682 C 195.377 0.938 192.969 -0.023 190.472 0.011 L 182.348 0.011 L 182.348 26.529 L 186.079 26.529 L 186.079 18.905 L 190.479 18.905 C 192.289 18.776 194.038 18.203 195.572 17.235 M 186.087 3.654 L 190.479 3.654 C 193.675 3.654 196.265 6.244 196.265 9.44 C 196.265 12.635 193.675 15.225 190.479 15.225 L 186.086 15.225 L 186.087 3.654 Z "
                  fill="rgb(255,255,255)"/>
            <path d=" M 176.909 26.196 L 165.127 0.345 L 153.388 26.196 L 157.508 26.196 L 159.414 22.171 L 159.443 22.171 L 161.895 16.946 L 165.127 9.84 L 165.142 9.872 L 165.142 9.862 L 170.81 22.175 L 170.875 22.175 L 172.662 26.2 L 176.909 26.196 Z "
                  fill="rgb(242,199,19)"/>
        </g>
    </g>
</svg>
